<?xml version="1.0" encoding="utf-8"?>
<!-- Generator: Adobe Illustrator 16.0.4, SVG Export Plug-In . SVG Version: 6.00 Build 0)  -->
<!DOCTYPE svg PUBLIC "-//W3C//DTD SVG 1.1//EN" "http://www.w3.org/Graphics/SVG/1.1/DTD/svg11.dtd">
<svg version="1.1" id="Layer_1" xmlns="http://www.w3.org/2000/svg" xmlns:xlink="http://www.w3.org/1999/xlink" x="0px" y="0px"
	 width="230px" height="55px" viewBox="0 0 230 55" enable-background="new 0 0 230 55" xml:space="preserve">
<g>
	<path fill="#FFFFFF" d="M39.275,44.81l-2.312-6.646h-12.08c-0.751,2.138-1.618,4.509-2.37,6.646H15l12.022-34.679h7.803
		L46.79,44.81H39.275z M30.894,20.246c-1.271,3.7-2.601,7.457-3.872,11.156h7.803L30.894,20.246z"/>
	<path fill="#FFFFFF" d="M76.675,39.609c-0.809,1.156-3.005,3.353-4.278,4.104c-0.982,0.521-2.369,1.098-3.699,1.098h-16.82V10.131
		h16.82c1.214,0,2.716,0.347,3.815,1.04c1.271,0.811,3.41,3.295,4.103,4.22c0.81,1.157,0.982,2.369,0.982,3.583v17.109
		C77.599,37.123,77.369,38.511,76.675,39.609 M70.548,19.264c-0.52-1.271-1.271-1.851-2.139-2.37h-9.48v21.154h9.48
		c0.81-0.462,1.561-1.099,2.139-2.197V19.264z"/>
	<path fill="#FFFFFF" d="M141.647,44.81V23.946c-1.967,4.22-4.047,8.438-6.012,12.601h-4.624l-5.954-12.543V44.81h-7.052V10.13
		h7.688l7.744,15.722c2.543-5.201,5.087-10.577,7.631-15.722h7.629v34.68H141.647z"/>
	<path fill="#FFFFFF" d="M181.126,39.782c-0.75,0.983-2.946,3.469-4.22,4.219c-0.98,0.579-2.426,1.101-3.813,1.101h-8.785
		c-1.445,0-2.833-0.521-3.814-1.101c-1.272-0.75-3.526-3.235-4.221-4.219c-0.75-1.098-0.982-2.368-0.982-3.583V18.8
		c0-1.271,0.232-2.542,0.982-3.64c0.694-0.926,2.948-3.411,4.221-4.162c0.981-0.578,2.369-1.098,3.814-1.098h8.785
		c1.388,0,2.833,0.52,3.813,1.098c1.273,0.751,3.47,3.236,4.22,4.162c0.754,1.098,0.982,2.369,0.982,3.64v17.398
		C182.108,37.414,181.88,38.684,181.126,39.782 M175.058,18.8c-0.404-0.693-1.502-1.792-2.08-2.138h-8.497
		c-0.462,0.347-1.444,1.214-2.138,2.197v17.339c0.635,0.867,1.618,1.85,2.08,2.138h8.498c0.461-0.347,1.501-1.328,2.137-2.138V18.8z
		"/>
	<path fill="#FFFFFF" d="M195.29,18.686v3.062c0,0.231,0.174,0.348,0.174,0.348l14.681,3.988c3.179,0.867,4.798,3.873,4.798,6.705
		v3.41c0,0.924-0.289,2.428-1.039,3.583c-0.752,1.099-3.008,3.469-4.221,4.219c-0.926,0.521-2.427,1.101-3.814,1.101h-8.844
		c-3.525,0-6.242-2.948-7.63-4.914c-0.751-1.041-1.444-2.254-1.966-3.698l6.532-2.024c0.81,1.445,1.792,3.064,3.005,3.872h8.786
		c0.866-0.461,2.082-1.907,2.082-1.965v-3.409c0-0.29-0.174-0.346-0.174-0.346c-4.798-1.272-9.769-2.66-14.623-3.933
		c-3.237-0.866-4.799-3.873-4.799-6.705v-3.179c0-1.041,0.174-2.486,0.927-3.641c0.691-0.984,3.005-3.353,4.334-4.162
		c0.926-0.521,2.37-1.098,3.756-1.098h8.208c3.526,0,6.185,2.947,7.572,4.854c0.925,1.273,1.503,2.485,1.965,3.699l-6.531,1.851
		c-0.751-1.561-1.444-2.544-3.062-3.642h-7.977C196.504,17.125,195.29,18.627,195.29,18.686"/>
	<polygon fill="#008DAB" points="92.514,34.841 97.494,20.246 97.498,20.258 100.957,10.13 93.621,10.13 85.055,34.841 	"/>
	<polygon fill="#B9E0E3" points="105.925,44.81 113.389,44.81 102.961,14.587 99.281,25.363 	"/>
	<polygon fill="#00B4CD" points="100.131,38.18 83.898,38.18 81.599,44.81 102.397,44.81 	"/>
</g>
</svg>
