<?xml version="1.0" encoding="utf-8"?>
<!-- Generator: Adobe Illustrator 16.0.4, SVG Export Plug-In . SVG Version: 6.00 Build 0)  -->
<!DOCTYPE svg PUBLIC "-//W3C//DTD SVG 1.1//EN" "http://www.w3.org/Graphics/SVG/1.1/DTD/svg11.dtd">
<svg version="1.1" id="Layer_1" xmlns="http://www.w3.org/2000/svg" xmlns:xlink="http://www.w3.org/1999/xlink" x="0px" y="0px"
	 width="300px" height="55px" viewBox="0 0 300 55" enable-background="new 0 0 300 55" xml:space="preserve">
<g>
	<path fill="#1D1D1B" d="M36.413,53.465l-3.468-9.971h-18.12c-1.127,3.207-2.427,6.764-3.554,9.971H0l18.033-52.02h11.705
		l17.947,52.02H36.413z M23.841,16.619c-1.907,5.549-3.901,11.184-5.809,16.733h11.705L23.841,16.619z"/>
	<path fill="#1D1D1B" d="M92.512,45.663c-1.213,1.734-4.508,5.029-6.417,6.156c-1.474,0.781-3.554,1.646-5.548,1.646H55.318V1.446
		h25.229c1.821,0,4.074,0.521,5.723,1.561c1.907,1.215,5.114,4.942,6.155,6.33c1.214,1.735,1.474,3.554,1.474,5.375v25.663
		C93.899,41.934,93.553,44.016,92.512,45.663 M83.322,15.145c-0.78-1.907-1.907-2.776-3.208-3.554h-14.22v31.732h14.22
		c1.214-0.693,2.341-1.648,3.208-3.297V15.145z"/>
	<path fill="#1D1D1B" d="M189.971,53.465V22.168c-2.949,6.33-6.069,12.656-9.018,18.9h-6.936l-8.931-18.814v31.211h-10.578V1.445
		h11.533l11.616,23.583c3.814-7.802,7.63-15.866,11.445-23.583h11.444v52.02H189.971z"/>
	<path fill="#1D1D1B" d="M249.189,45.922c-1.126,1.475-4.42,5.203-6.33,6.328c-1.471,0.869-3.639,1.65-5.72,1.65h-13.178
		c-2.168,0-4.25-0.781-5.723-1.65c-1.908-1.125-5.289-4.854-6.33-6.328c-1.126-1.646-1.474-3.553-1.474-5.375V14.45
		c0-1.907,0.348-3.813,1.474-5.46c1.041-1.389,4.422-5.117,6.33-6.244c1.473-0.867,3.555-1.646,5.723-1.646h13.178
		c2.081,0,4.249,0.78,5.72,1.646c1.91,1.126,5.204,4.854,6.33,6.244c1.13,1.646,1.474,3.553,1.474,5.46v26.097
		C250.663,42.37,250.319,44.276,249.189,45.922 M240.086,14.45c-0.605-1.04-2.253-2.687-3.12-3.208h-12.745
		c-0.693,0.521-2.167,1.821-3.207,3.296v26.008c0.953,1.301,2.428,2.775,3.121,3.207h12.746c0.692-0.52,2.252-1.992,3.205-3.207
		V14.45z"/>
	<path fill="#1D1D1B" d="M270.435,14.278v4.594c0,0.347,0.262,0.521,0.262,0.521l22.021,5.982c4.769,1.301,7.197,5.809,7.197,10.057
		v5.115c0,1.387-0.434,3.643-1.56,5.375c-1.128,1.648-4.511,5.203-6.33,6.328c-1.389,0.781-3.641,1.65-5.723,1.65h-13.265
		c-5.289,0-9.363-4.422-11.445-7.371c-1.126-1.561-2.166-3.381-2.948-5.547l9.798-3.037c1.215,2.168,2.688,4.598,4.508,5.809h13.179
		c1.3-0.691,3.123-2.861,3.123-2.947v-5.113c0-0.436-0.261-0.52-0.261-0.52c-7.196-1.908-14.653-3.99-21.935-5.898
		c-4.855-1.299-7.198-5.809-7.198-10.057v-4.769c0-1.561,0.261-3.729,1.39-5.46c1.038-1.476,4.508-5.029,6.501-6.243
		c1.389-0.781,3.556-1.647,5.635-1.647h12.312c5.29,0,9.276,4.421,11.358,7.281c1.387,1.909,2.254,3.728,2.947,5.549l-9.797,2.776
		c-1.127-2.341-2.167-3.816-4.594-5.462h-11.965C272.256,11.938,270.435,14.19,270.435,14.278"/>
	<polygon fill="#008DAB" points="116.271,38.512 123.74,16.619 123.746,16.636 128.935,1.445 117.931,1.445 105.082,38.512 	"/>
	<polygon fill="#B9E0E3" points="136.387,53.465 147.583,53.465 131.942,8.13 126.421,24.295 	"/>
	<polygon fill="#00B4CD" points="127.697,43.52 103.347,43.52 99.898,53.465 131.096,53.465 	"/>
</g>
</svg>
